<svg id="visual" viewBox="0 0 900 600" width="900" height="600" xmlns="http://www.w3.org/2000/svg" xmlns:xlink="http://www.w3.org/1999/xlink" version="1.1"><path d="M0 115L13.7 116C27.3 117 54.7 119 82 114C109.3 109 136.7 97 163.8 97C191 97 218 109 245.2 103C272.3 97 299.7 73 327 63C354.3 53 381.7 57 409 69C436.3 81 463.7 101 491 102C518.3 103 545.7 85 573 72C600.3 59 627.7 51 654.8 47C682 43 709 43 736.2 56C763.3 69 790.7 95 818 108C845.3 121 872.7 121 886.3 121L900 121L900 0L886.3 0C872.7 0 845.3 0 818 0C790.7 0 763.3 0 736.2 0C709 0 682 0 654.8 0C627.7 0 600.3 0 573 0C545.7 0 518.3 0 491 0C463.7 0 436.3 0 409 0C381.7 0 354.3 0 327 0C299.7 0 272.3 0 245.2 0C218 0 191 0 163.8 0C136.7 0 109.3 0 82 0C54.7 0 27.3 0 13.7 0L0 0Z" fill="#8000ba"></path><path d="M0 187L13.7 191C27.3 195 54.7 203 82 198C109.3 193 136.7 175 163.8 169C191 163 218 169 245.2 160C272.3 151 299.7 127 327 114C354.3 101 381.7 99 409 113C436.3 127 463.7 157 491 163C518.3 169 545.7 151 573 141C600.3 131 627.7 129 654.8 123C682 117 709 107 736.2 114C763.3 121 790.7 145 818 161C845.3 177 872.7 185 886.3 189L900 193L900 119L886.3 119C872.7 119 845.3 119 818 106C790.7 93 763.3 67 736.2 54C709 41 682 41 654.8 45C627.7 49 600.3 57 573 70C545.7 83 518.3 101 491 100C463.7 99 436.3 79 409 67C381.7 55 354.3 51 327 61C299.7 71 272.3 95 245.2 101C218 107 191 95 163.8 95C136.7 95 109.3 107 82 112C54.7 117 27.3 115 13.7 114L0 113Z" fill="#b731ff"></path><path d="M0 301L13.7 304C27.3 307 54.7 313 82 300C109.3 287 136.7 255 163.8 248C191 241 218 259 245.2 249C272.3 239 299.7 201 327 197C354.3 193 381.7 223 409 236C436.3 249 463.7 245 491 247C518.3 249 545.7 257 573 262C600.3 267 627.7 269 654.8 263C682 257 709 243 736.2 252C763.3 261 790.7 293 818 299C845.3 305 872.7 285 886.3 275L900 265L900 191L886.3 187C872.7 183 845.3 175 818 159C790.7 143 763.3 119 736.2 112C709 105 682 115 654.8 121C627.7 127 600.3 129 573 139C545.7 149 518.3 167 491 161C463.7 155 436.3 125 409 111C381.7 97 354.3 99 327 112C299.7 125 272.3 149 245.2 158C218 167 191 161 163.8 167C136.7 173 109.3 191 82 196C54.7 201 27.3 193 13.7 189L0 185Z" fill="#cd6fff"></path><path d="M0 451L13.7 452C27.3 453 54.7 455 82 439C109.3 423 136.7 389 163.8 389C191 389 218 423 245.2 426C272.3 429 299.7 401 327 400C354.3 399 381.7 425 409 436C436.3 447 463.7 443 491 441C518.3 439 545.7 439 573 441C600.3 443 627.7 447 654.8 438C682 429 709 407 736.2 417C763.3 427 790.7 469 818 470C845.3 471 872.7 431 886.3 411L900 391L900 263L886.3 273C872.7 283 845.3 303 818 297C790.7 291 763.3 259 736.2 250C709 241 682 255 654.8 261C627.7 267 600.3 265 573 260C545.7 255 518.3 247 491 245C463.7 243 436.3 247 409 234C381.7 221 354.3 191 327 195C299.7 199 272.3 237 245.2 247C218 257 191 239 163.8 246C136.7 253 109.3 285 82 298C54.7 311 27.3 305 13.7 302L0 299Z" fill="#b731ff"></path><path d="M0 601L13.7 601C27.3 601 54.7 601 82 601C109.3 601 136.7 601 163.8 601C191 601 218 601 245.2 601C272.3 601 299.7 601 327 601C354.3 601 381.7 601 409 601C436.3 601 463.7 601 491 601C518.3 601 545.7 601 573 601C600.3 601 627.7 601 654.8 601C682 601 709 601 736.2 601C763.3 601 790.7 601 818 601C845.3 601 872.7 601 886.3 601L900 601L900 389L886.3 409C872.7 429 845.3 469 818 468C790.7 467 763.3 425 736.2 415C709 405 682 427 654.8 436C627.7 445 600.3 441 573 439C545.7 437 518.3 437 491 439C463.7 441 436.3 445 409 434C381.7 423 354.3 397 327 398C299.7 399 272.3 427 245.2 424C218 421 191 387 163.8 387C136.7 387 109.3 421 82 437C54.7 453 27.3 451 13.7 450L0 449Z" fill="#8000ba"></path></svg>