<svg id="visual" viewBox="0 0 900 600" width="900" height="600" xmlns="http://www.w3.org/2000/svg" xmlns:xlink="http://www.w3.org/1999/xlink" version="1.1"><rect x="0" y="0" width="900" height="600" fill="#1d1d1d"></rect><path d="M0 183L21.5 191.3C43 199.7 86 216.3 128.8 220.8C171.7 225.3 214.3 217.7 257.2 210.2C300 202.7 343 195.3 385.8 196.5C428.7 197.7 471.3 207.3 514.2 215.7C557 224 600 231 642.8 222.3C685.7 213.7 728.3 189.3 771.2 177.5C814 165.7 857 166.3 878.5 166.7L900 167L900 0L878.5 0C857 0 814 0 771.2 0C728.3 0 685.7 0 642.8 0C600 0 557 0 514.2 0C471.3 0 428.7 0 385.8 0C343 0 300 0 257.2 0C214.3 0 171.7 0 128.8 0C86 0 43 0 21.5 0L0 0Z" fill="#fac669"></path><path d="M0 148L21.5 153.3C43 158.7 86 169.3 128.8 173.7C171.7 178 214.3 176 257.2 178.2C300 180.3 343 186.7 385.8 191.2C428.7 195.7 471.3 198.3 514.2 195C557 191.7 600 182.3 642.8 171.3C685.7 160.3 728.3 147.7 771.2 140.7C814 133.7 857 132.3 878.5 131.7L900 131L900 0L878.5 0C857 0 814 0 771.2 0C728.3 0 685.7 0 642.8 0C600 0 557 0 514.2 0C471.3 0 428.7 0 385.8 0C343 0 300 0 257.2 0C214.3 0 171.7 0 128.8 0C86 0 43 0 21.5 0L0 0Z" fill="#f5a851"></path><path d="M0 106L21.5 111C43 116 86 126 128.8 126C171.7 126 214.3 116 257.2 116.3C300 116.7 343 127.3 385.8 132C428.7 136.7 471.3 135.3 514.2 127.7C557 120 600 106 642.8 105.2C685.7 104.3 728.3 116.7 771.2 117C814 117.3 857 105.7 878.5 99.8L900 94L900 0L878.5 0C857 0 814 0 771.2 0C728.3 0 685.7 0 642.8 0C600 0 557 0 514.2 0C471.3 0 428.7 0 385.8 0C343 0 300 0 257.2 0C214.3 0 171.7 0 128.8 0C86 0 43 0 21.5 0L0 0Z" fill="#ef893f"></path><path d="M0 111L21.5 109.5C43 108 86 105 128.8 99.3C171.7 93.7 214.3 85.3 257.2 83C300 80.7 343 84.3 385.8 90.3C428.7 96.3 471.3 104.7 514.2 108.2C557 111.7 600 110.3 642.8 104C685.7 97.7 728.3 86.3 771.2 86.2C814 86 857 97 878.5 102.5L900 108L900 0L878.5 0C857 0 814 0 771.2 0C728.3 0 685.7 0 642.8 0C600 0 557 0 514.2 0C471.3 0 428.7 0 385.8 0C343 0 300 0 257.2 0C214.3 0 171.7 0 128.8 0C86 0 43 0 21.5 0L0 0Z" fill="#e76734"></path><path d="M0 30L21.5 30.7C43 31.3 86 32.7 128.8 31.7C171.7 30.7 214.3 27.3 257.2 32.2C300 37 343 50 385.8 51.2C428.7 52.3 471.3 41.7 514.2 41.5C557 41.3 600 51.7 642.8 58C685.7 64.3 728.3 66.7 771.2 62.2C814 57.7 857 46.3 878.5 40.7L900 35L900 0L878.5 0C857 0 814 0 771.2 0C728.3 0 685.7 0 642.8 0C600 0 557 0 514.2 0C471.3 0 428.7 0 385.8 0C343 0 300 0 257.2 0C214.3 0 171.7 0 128.8 0C86 0 43 0 21.5 0L0 0Z" fill="#dd3f31"></path></svg>